# xmcd
#
# Track frame offsets:
#	150
#	13566
#	24625
#	38737
#	49984
#	61323
#	76680
#	92191
#	106547
#	118607
#
# Disc length: 1710 seconds
#
# Revision: 0
# Processed by: cddbd v1.5.2PL0 Copyright (c) Steve Scherf et al.
# Submitted via: dBpowerAMP V4.0
#
DISCID=6f06ac0a
DTITLE=Conway Twitty - Hello Darlin'
DYEAR=2006
DGENRE=Country
TTITLE0=After All The Good Is Gone
TTITLE1=As Soon As I Hang Up The Phone
TTITLE2=Fifteen Years Ago
TTITLE3=Hello Darlin'
TTITLE4=It's Only Make Believe
TTITLE5=Lost Her Love After Our Last Date
TTITLE6=Toch The Hand
TTITLE7=You've Never Been This Far Before
TTITLE8=I Can't See You Without Me
TTITLE9=I'll Try
EXTD=
EXTT0=
EXTT1=
EXTT2=
EXTT3=
EXTT4=
EXTT5=
EXTT6=
EXTT7=
EXTT8=
EXTT9=
PLAYORDER=
